<svg width="60" height="60" viewBox="0 0 60 60" fill="none" xmlns="http://www.w3.org/2000/svg">
<g clip-path="url(#clip0_298_12)">
<path d="M35.25 33H34.065L33.645 32.595C35.1659 30.8311 36.0018 28.5791 36 26.25C36 24.3216 35.4282 22.4366 34.3568 20.8332C33.2855 19.2298 31.7627 17.9801 29.9812 17.2422C28.1996 16.5042 26.2392 16.3111 24.3479 16.6873C22.4566 17.0636 20.7193 17.9922 19.3557 19.3557C17.9922 20.7193 17.0636 22.4566 16.6873 24.3479C16.3111 26.2392 16.5042 28.1996 17.2422 29.9812C17.9801 31.7627 19.2298 33.2855 20.8332 34.3568C22.4366 35.4282 24.3216 36 26.25 36C28.665 36 30.885 35.115 32.595 33.645L33 34.065V35.25L40.5 42.735L42.735 40.5L35.25 33ZM26.25 33C22.515 33 19.5 29.985 19.5 26.25C19.5 22.515 22.515 19.5 26.25 19.5C29.985 19.5 33 22.515 33 26.25C33 29.985 29.985 33 26.25 33Z" fill="#909090"/>
</g>
<rect x="0.5" y="0.5" width="59" height="59" rx="7.5" stroke="white" stroke-opacity="0.3"/>
<defs>
<clipPath id="clip0_298_12">
<rect width="60" height="60" rx="8" fill="white"/>
</clipPath>
</defs>
</svg>
