<svg width="60" height="60" viewBox="0 0 60 60" fill="none" xmlns="http://www.w3.org/2000/svg">
<rect x="0.5" y="0.5" width="59" height="59" rx="7.5" stroke="white" stroke-opacity="0.3"/>
<path d="M25.7143 15H34.2857V45H25.7143V15ZM15 45V25.7143H23.5714V45H15ZM19.2857 15C18.1491 15 17.059 15.4515 16.2553 16.2553C15.4515 17.059 15 18.1491 15 19.2857C15 20.4224 15.4515 21.5124 16.2553 22.3162C17.059 23.1199 18.1491 23.5714 19.2857 23.5714C20.4224 23.5714 21.5124 23.1199 22.3162 22.3162C23.1199 21.5124 23.5714 20.4224 23.5714 19.2857C23.5714 18.1491 23.1199 17.059 22.3162 16.2553C21.5124 15.4515 20.4224 15 19.2857 15ZM36.4286 15H45V23.5714H36.4286V15ZM45 25.7143H36.4286V34.2857H45V25.7143Z" fill="#909090"/>
</svg>
