<svg width="60" height="60" viewBox="0 0 60 60" fill="none" xmlns="http://www.w3.org/2000/svg">
<rect x="0.5" y="0.5" width="59" height="59" rx="7.5" stroke="white" stroke-opacity="0.3"/>
<path d="M46 38.1272V43.4606C46.0003 44.3576 45.6615 45.2216 45.0516 45.8793C44.4416 46.5371 43.6056 46.9399 42.7111 47.0072L42.4444 47.0161H31.7778V38.1272H46ZM28.2222 27.4606V47.0161H17.5556C16.6585 47.0164 15.7945 46.6776 15.1368 46.0677C14.4791 45.4577 14.0762 44.6217 14.0089 43.7272L14 43.4606V27.4606H28.2222ZM42.4444 15.0161C43.3415 15.0158 44.2055 15.3546 44.8632 15.9646C45.5209 16.5745 45.9238 17.4105 45.9911 18.305L46 18.5717V34.5717H31.7778V15.0161H42.4444ZM28.2222 15.0161V23.905H14V18.5717C13.9997 17.6746 14.3385 16.8107 14.9484 16.1529C15.5584 15.4952 16.3944 15.0923 17.2889 15.025L17.5556 15.0161H28.2222Z" fill="#909090"/>
</svg>
