<svg width="60" height="60" viewBox="0 0 60 60" fill="none" xmlns="http://www.w3.org/2000/svg">
<rect x="0.5" y="0.5" width="59" height="59" rx="7.5" stroke="white" stroke-opacity="0.3"/>
<mask id="mask0_298_344" style="mask-type:luminance" maskUnits="userSpaceOnUse" x="8" y="18" width="44" height="26">
<path d="M50.7682 42.6261H9.23328C10.28 32.0788 19.1784 23.8419 30.0002 23.8419C40.8241 23.8419 49.7215 32.0788 50.7682 42.6261Z" fill="white" stroke="white" stroke-linejoin="round"/>
<path d="M19.5646 25.9289L15.3903 18.6239M39.3923 25.9289L43.5666 18.6239" stroke="white" stroke-linecap="round" stroke-linejoin="round"/>
<path d="M20.6081 37.4083C21.7608 37.4083 22.6953 36.4738 22.6953 35.3211C22.6953 34.1684 21.7608 33.234 20.6081 33.234C19.4554 33.234 18.521 34.1684 18.521 35.3211C18.521 36.4738 19.4554 37.4083 20.6081 37.4083Z" fill="black"/>
<path d="M39.3923 37.4083C40.545 37.4083 41.4794 36.4738 41.4794 35.3211C41.4794 34.1684 40.545 33.234 39.3923 33.234C38.2396 33.234 37.3052 34.1684 37.3052 35.3211C37.3052 36.4738 38.2396 37.4083 39.3923 37.4083Z" fill="black"/>
</mask>
<g mask="url(#mask0_298_344)">
<path d="M4.95465 5.05762H55.0458V55.1487H4.95465V5.05762Z" fill="#909090"/>
</g>
</svg>
